<?xml version="1.0" encoding="UTF-8"?>
<!DOCTYPE svg PUBLIC "-//W3C//DTD SVG 1.1//EN" "http://www.w3.org/Graphics/SVG/1.1/DTD/svg11.dtd">
<svg xmlns="http://www.w3.org/2000/svg" version="1.1" width="500px" height="500px" style="shape-rendering:geometricPrecision; text-rendering:geometricPrecision; image-rendering:optimizeQuality; fill-rule:evenodd; clip-rule:evenodd" xmlns:xlink="http://www.w3.org/1999/xlink">
<g><path style="opacity:1" fill="#fefefe" d="M -0.5,-0.5 C 166.167,-0.5 332.833,-0.5 499.5,-0.5C 499.5,166.167 499.5,332.833 499.5,499.5C 332.833,499.5 166.167,499.5 -0.5,499.5C -0.5,332.833 -0.5,166.167 -0.5,-0.5 Z"/></g>
<g><path style="opacity:1" fill="#83952b" d="M 242.5,102.5 C 242.5,105.167 242.5,107.833 242.5,110.5C 242.5,115.167 242.5,119.833 242.5,124.5C 241.833,129.833 241.167,129.833 240.5,124.5C 240.5,120.167 240.5,115.833 240.5,111.5C 241.598,102.642 240.098,94.3083 236,86.5C 232.997,83.4173 229.497,81.584 225.5,81C 231.734,87.2072 234.068,94.7072 232.5,103.5C 231.5,103.5 230.5,103.5 229.5,103.5C 231.61,93.5749 228.61,85.7416 220.5,80C 210.695,80.7372 204.695,85.9039 202.5,95.5C 201.509,101.979 201.176,108.646 201.5,115.5C 201.5,120.167 201.5,124.833 201.5,129.5C 201.29,135.966 200.623,135.966 199.5,129.5C 199.5,125.167 199.5,120.833 199.5,116.5C 199.5,113.167 199.5,109.833 199.5,106.5C 197.65,96.2116 200.65,87.7116 208.5,81C 215.84,77.6597 214.84,76.6597 205.5,78C 198.477,80.5183 194.143,85.3517 192.5,92.5C 192.141,97.7486 191.141,102.749 189.5,107.5C 189.13,101.075 189.63,94.7416 191,88.5C 196.364,77.2561 205.198,73.0894 217.5,76C 234.016,77.3445 242.35,86.1779 242.5,102.5 Z"/></g>
<g><path style="opacity:1" fill="#fcfcfa" d="M 199.5,106.5 C 197.167,106.5 194.833,106.5 192.5,106.5C 192.5,101.833 192.5,97.1667 192.5,92.5C 194.143,85.3517 198.477,80.5183 205.5,78C 214.84,76.6597 215.84,77.6597 208.5,81C 200.65,87.7116 197.65,96.2116 199.5,106.5 Z"/></g>
<g><path style="opacity:1" fill="#fdfdfc" d="M 229.5,103.5 C 220.533,104.579 211.533,105.246 202.5,105.5C 202.5,102.167 202.5,98.8333 202.5,95.5C 204.695,85.9039 210.695,80.7372 220.5,80C 228.61,85.7416 231.61,93.5749 229.5,103.5 Z"/></g>
<g><path style="opacity:1" fill="#fdf7fd" d="M 354.5,85.5 C 359.172,88.006 362.672,91.6727 365,96.5C 365.5,103.492 365.666,110.492 365.5,117.5C 363.393,118.468 361.059,118.802 358.5,118.5C 358.666,112.158 358.5,105.825 358,99.5C 357.146,96.4076 355.646,93.7409 353.5,91.5C 350.525,88.3389 346.858,86.1723 342.5,85C 346.554,84.3064 350.554,84.4731 354.5,85.5 Z"/></g>
<g><path style="opacity:1" fill="#f18af6" d="M 359.5,85.5 C 357.602,84.9035 355.935,84.9035 354.5,85.5C 350.554,84.4731 346.554,84.3064 342.5,85C 346.858,86.1723 350.525,88.3389 353.5,91.5C 352.662,91.8417 352.328,92.5084 352.5,93.5C 347.965,88.9867 342.632,87.3201 336.5,88.5C 335.432,87.5655 334.099,87.2322 332.5,87.5C 339.381,82.8002 347.047,81.3002 355.5,83C 357.066,83.6082 358.4,84.4415 359.5,85.5 Z"/></g>
<g><path style="opacity:1" fill="#fefcfe" d="M 352.5,93.5 C 352.5,93.8333 352.5,94.1667 352.5,94.5C 353.072,96.2554 353.906,97.9221 355,99.5C 355.499,105.157 355.666,110.824 355.5,116.5C 347.981,116.825 340.648,116.492 333.5,115.5C 332.778,108.841 332.611,102.175 333,95.5C 333.653,92.8608 334.82,90.5274 336.5,88.5C 342.632,87.3201 347.965,88.9867 352.5,93.5 Z"/></g>
<g><path style="opacity:1" fill="#bb47d2" d="M 353.5,91.5 C 355.646,93.7409 357.146,96.4076 358,99.5C 358.5,105.825 358.666,112.158 358.5,118.5C 358.5,121.167 358.5,123.833 358.5,126.5C 358.799,128.604 358.466,130.604 357.5,132.5C 355.783,131.332 355.116,129.665 355.5,127.5C 355.5,124.167 355.5,120.833 355.5,117.5C 356.653,111.347 356.82,105.014 356,98.5C 355.34,96.6763 354.173,95.343 352.5,94.5C 352.5,94.1667 352.5,93.8333 352.5,93.5C 352.328,92.5084 352.662,91.8417 353.5,91.5 Z"/></g>
<g><path style="opacity:1" fill="#d858ea" d="M 354.5,85.5 C 355.935,84.9035 357.602,84.9035 359.5,85.5C 363.336,88.6783 366.002,92.6783 367.5,97.5C 368.126,104.584 367.459,111.25 365.5,117.5C 365.666,110.492 365.5,103.492 365,96.5C 362.672,91.6727 359.172,88.006 354.5,85.5 Z"/></g>
<g><path style="opacity:1" fill="#507ced" d="M 120.5,141.5 C 120.831,162.34 120.497,183.007 119.5,203.5C 115.111,176.165 110.611,148.832 106,121.5C 105.848,115.022 103.015,110.188 97.5,107C 85.5,106.667 73.5,106.333 61.5,106C 57.5,102.333 57.5,98.6667 61.5,95C 72.8333,94.3333 84.1667,94.3333 95.5,95C 106.119,96.9515 112.952,103.118 116,113.5C 117.61,122.827 119.11,132.16 120.5,141.5 Z"/></g>
<g><path style="opacity:1" fill="#c752de" d="M 332.5,87.5 C 334.099,87.2322 335.432,87.5655 336.5,88.5C 334.82,90.5274 333.653,92.8608 333,95.5C 332.611,102.175 332.778,108.841 333.5,115.5C 332.5,115.5 331.5,115.5 330.5,115.5C 330.334,108.159 330.5,100.826 331,93.5C 334.778,89.6532 334.278,88.8198 329.5,91C 326.928,93.3128 325.261,96.1461 324.5,99.5C 323.507,107.65 323.174,115.983 323.5,124.5C 323.799,126.604 323.466,128.604 322.5,130.5C 320.889,129.68 320.222,128.346 320.5,126.5C 320.5,122.833 320.5,119.167 320.5,115.5C 321.011,108.525 322.177,101.525 324,94.5C 326.436,91.5532 329.269,89.2199 332.5,87.5 Z"/></g>
<g><path style="opacity:1" fill="#fdf8fe" d="M 330.5,115.5 C 328.5,115.5 326.5,115.5 324.5,115.5C 324.5,110.167 324.5,104.833 324.5,99.5C 325.261,96.1461 326.928,93.3128 329.5,91C 334.278,88.8198 334.778,89.6532 331,93.5C 330.5,100.826 330.334,108.159 330.5,115.5 Z"/></g>
<g><path style="opacity:1" fill="#f6f1e1" d="M 240.5,111.5 C 227.454,112.394 214.454,113.727 201.5,115.5C 201.176,108.646 201.509,101.979 202.5,95.5C 202.5,98.8333 202.5,102.167 202.5,105.5C 211.533,105.246 220.533,104.579 229.5,103.5C 230.5,103.5 231.5,103.5 232.5,103.5C 234.068,94.7072 231.734,87.2072 225.5,81C 229.497,81.584 232.997,83.4173 236,86.5C 240.098,94.3083 241.598,102.642 240.5,111.5 Z"/></g>
<g><path style="opacity:1" fill="#fab8fb" d="M 352.5,94.5 C 354.173,95.343 355.34,96.6763 356,98.5C 356.82,105.014 356.653,111.347 355.5,117.5C 355.5,117.167 355.5,116.833 355.5,116.5C 355.666,110.824 355.499,105.157 355,99.5C 353.906,97.9221 353.072,96.2554 352.5,94.5 Z"/></g>
<g><path style="opacity:1" fill="#c2bda0" d="M 263.5,109.5 C 256.496,109.773 249.496,110.106 242.5,110.5C 242.5,107.833 242.5,105.167 242.5,102.5C 244.435,101.85 246.435,101.517 248.5,101.5C 248.5,103.167 248.5,104.833 248.5,106.5C 253.727,106.978 258.727,107.978 263.5,109.5 Z"/></g>
<g><path style="opacity:1" fill="#e4ddca" d="M 192.5,92.5 C 192.5,97.1667 192.5,101.833 192.5,106.5C 194.833,106.5 197.167,106.5 199.5,106.5C 199.5,109.833 199.5,113.167 199.5,116.5C 192.173,116.944 184.84,117.277 177.5,117.5C 178.117,115.771 179.117,114.271 180.5,113C 175.864,111.933 171.198,111.1 166.5,110.5C 165.209,110.737 164.209,110.404 163.5,109.5C 172.102,108.076 180.768,107.409 189.5,107.5C 191.141,102.749 192.141,97.7486 192.5,92.5 Z"/></g>
<g><path style="opacity:1" fill="#c8e165" d="M 263.5,109.5 C 264.045,121.826 264.378,134.16 264.5,146.5C 257.167,146.5 249.833,146.5 242.5,146.5C 236.5,146.5 230.5,146.5 224.5,146.5C 218.167,146.5 211.833,146.5 205.5,146.5C 199.5,146.5 193.5,146.5 187.5,146.5C 183.833,146.5 180.167,146.5 176.5,146.5C 176.173,136.652 176.506,126.986 177.5,117.5C 184.84,117.277 192.173,116.944 199.5,116.5C 199.5,120.833 199.5,125.167 199.5,129.5C 197.559,131.011 197.059,133.011 198,135.5C 202.686,137.15 204.686,135.484 204,130.5C 203.329,129.748 202.496,129.414 201.5,129.5C 201.5,124.833 201.5,120.167 201.5,115.5C 214.454,113.727 227.454,112.394 240.5,111.5C 240.5,115.833 240.5,120.167 240.5,124.5C 237.756,125.072 236.923,126.738 238,129.5C 241.187,132.411 243.687,131.911 245.5,128C 245.293,126.05 244.293,124.884 242.5,124.5C 242.5,119.833 242.5,115.167 242.5,110.5C 249.496,110.106 256.496,109.773 263.5,109.5 Z"/></g>
<g><path style="opacity:1" fill="#839923" d="M 163.5,109.5 C 164.209,110.404 165.209,110.737 166.5,110.5C 166.5,122.5 166.5,134.5 166.5,146.5C 164.167,146.5 161.833,146.5 159.5,146.5C 159.675,134.161 160.008,121.828 160.5,109.5C 161.5,109.5 162.5,109.5 163.5,109.5 Z"/></g>
<g><path style="opacity:1" fill="#72821b" d="M 166.5,110.5 C 171.198,111.1 175.864,111.933 180.5,113C 179.117,114.271 178.117,115.771 177.5,117.5C 176.506,126.986 176.173,136.652 176.5,146.5C 173.833,146.5 171.167,146.5 168.5,146.5C 167.833,146.5 167.167,146.5 166.5,146.5C 166.5,134.5 166.5,122.5 166.5,110.5 Z"/></g>
<g><path style="opacity:1" fill="#e5bfd4" d="M 367.5,97.5 C 368.492,104.648 368.825,111.981 368.5,119.5C 375.833,119.5 383.167,119.5 390.5,119.5C 390.5,122.167 390.5,124.833 390.5,127.5C 389.532,125.393 389.198,123.059 389.5,120.5C 386.482,120.335 383.482,120.502 380.5,121C 381,121.5 381.5,122 382,122.5C 382.499,130.512 382.333,138.512 381.5,146.5C 375.167,146.5 368.833,146.5 362.5,146.5C 359.167,146.5 355.833,146.5 352.5,146.5C 342.5,146.5 332.5,146.5 322.5,146.5C 322.953,145.542 323.619,144.708 324.5,144C 323.653,140.624 322.319,137.457 320.5,134.5C 320.863,133.817 321.196,133.15 321.5,132.5C 325.487,132.348 326.987,130.348 326,126.5C 325.292,125.619 324.458,124.953 323.5,124.5C 323.174,115.983 323.507,107.65 324.5,99.5C 324.5,104.833 324.5,110.167 324.5,115.5C 326.5,115.5 328.5,115.5 330.5,115.5C 331.5,115.5 332.5,115.5 333.5,115.5C 340.648,116.492 347.981,116.825 355.5,116.5C 355.5,116.833 355.5,117.167 355.5,117.5C 355.5,120.833 355.5,124.167 355.5,127.5C 352.866,129.54 352.866,131.707 355.5,134C 360.667,135.5 362.5,133.667 361,128.5C 360.292,127.619 359.458,126.953 358.5,126.5C 358.5,123.833 358.5,121.167 358.5,118.5C 361.059,118.802 363.393,118.468 365.5,117.5C 367.459,111.25 368.126,104.584 367.5,97.5 Z"/></g>
<g><path style="opacity:1" fill="#eed0e0" d="M 320.5,115.5 C 320.5,119.167 320.5,122.833 320.5,126.5C 317.868,128.699 318.201,130.699 321.5,132.5C 321.196,133.15 320.863,133.817 320.5,134.5C 322.319,137.457 323.653,140.624 324.5,144C 323.619,144.708 322.953,145.542 322.5,146.5C 317.167,146.5 311.833,146.5 306.5,146.5C 303.5,146.5 300.5,146.5 297.5,146.5C 298.449,136.886 298.782,127.219 298.5,117.5C 302.361,116.656 306.194,115.656 310,114.5C 313.49,114.999 316.99,115.332 320.5,115.5 Z"/></g>
<g><path style="opacity:1" fill="#ebe5cc" d="M 240.5,124.5 C 241.167,129.833 241.833,129.833 242.5,124.5C 244.293,124.884 245.293,126.05 245.5,128C 243.687,131.911 241.187,132.411 238,129.5C 236.923,126.738 237.756,125.072 240.5,124.5 Z"/></g>
<g><path style="opacity:1" fill="#33a26b" d="M 323.5,124.5 C 324.458,124.953 325.292,125.619 326,126.5C 326.987,130.348 325.487,132.348 321.5,132.5C 318.201,130.699 317.868,128.699 320.5,126.5C 320.222,128.346 320.889,129.68 322.5,130.5C 323.466,128.604 323.799,126.604 323.5,124.5 Z"/></g>
<g><path style="opacity:1" fill="#e5dec7" d="M 199.5,129.5 C 200.623,135.966 201.29,135.966 201.5,129.5C 202.496,129.414 203.329,129.748 204,130.5C 204.686,135.484 202.686,137.15 198,135.5C 197.059,133.011 197.559,131.011 199.5,129.5 Z"/></g>
<g><path style="opacity:1" fill="#349a65" d="M 358.5,126.5 C 359.458,126.953 360.292,127.619 361,128.5C 362.5,133.667 360.667,135.5 355.5,134C 352.866,131.707 352.866,129.54 355.5,127.5C 355.116,129.665 355.783,131.332 357.5,132.5C 358.466,130.604 358.799,128.604 358.5,126.5 Z"/></g>
<g><path style="opacity:1" fill="#88516e" d="M 390.5,127.5 C 390.5,133.833 390.5,140.167 390.5,146.5C 387.5,146.5 384.5,146.5 381.5,146.5C 382.333,138.512 382.499,130.512 382,122.5C 381.5,122 381,121.5 380.5,121C 383.482,120.502 386.482,120.335 389.5,120.5C 389.198,123.059 389.532,125.393 390.5,127.5 Z"/></g>
<g><path style="opacity:1" fill="#df6cc2" d="M 168.5,146.5 C 171.167,146.5 173.833,146.5 176.5,146.5C 180.167,146.5 183.833,146.5 187.5,146.5C 187.5,200.833 187.5,255.167 187.5,309.5C 178.504,311.33 171.837,308.33 167.5,300.5C 168.499,249.336 168.832,198.003 168.5,146.5 Z"/></g>
<g><path style="opacity:1" fill="#d36cc6" d="M 187.5,146.5 C 193.5,146.5 199.5,146.5 205.5,146.5C 205.5,200.833 205.5,255.167 205.5,309.5C 199.5,309.5 193.5,309.5 187.5,309.5C 187.5,255.167 187.5,200.833 187.5,146.5 Z"/></g>
<g><path style="opacity:1" fill="#c66dc9" d="M 205.5,146.5 C 211.833,146.5 218.167,146.5 224.5,146.5C 224.5,200.833 224.5,255.167 224.5,309.5C 218.167,309.5 211.833,309.5 205.5,309.5C 205.5,255.167 205.5,200.833 205.5,146.5 Z"/></g>
<g><path style="opacity:1" fill="#bc6fcc" d="M 224.5,146.5 C 230.5,146.5 236.5,146.5 242.5,146.5C 242.5,163.5 242.5,180.5 242.5,197.5C 229.253,215.322 225.753,234.989 232,256.5C 234.12,263.408 237.287,269.741 241.5,275.5C 241.5,286.833 241.5,298.167 241.5,309.5C 235.833,309.5 230.167,309.5 224.5,309.5C 224.5,255.167 224.5,200.833 224.5,146.5 Z"/></g>
<g><path style="opacity:1" fill="#aa70d1" d="M 242.5,146.5 C 249.833,146.5 257.167,146.5 264.5,146.5C 266.167,146.5 267.833,146.5 269.5,146.5C 269.5,156.833 269.5,167.167 269.5,177.5C 259.249,182.461 250.249,189.127 242.5,197.5C 242.5,180.5 242.5,163.5 242.5,146.5 Z"/></g>
<g><path style="opacity:1" fill="#9272d8" d="M 269.5,146.5 C 278.833,146.5 288.167,146.5 297.5,146.5C 300.5,146.5 303.5,146.5 306.5,146.5C 306.827,156.015 306.494,165.348 305.5,174.5C 296.494,174.334 287.494,174.5 278.5,175C 275.454,175.739 272.454,176.572 269.5,177.5C 269.5,167.167 269.5,156.833 269.5,146.5 Z"/></g>
<g><path style="opacity:1" fill="#7374e0" d="M 306.5,146.5 C 311.833,146.5 317.167,146.5 322.5,146.5C 332.5,146.5 342.5,146.5 352.5,146.5C 352.5,169.167 352.5,191.833 352.5,214.5C 342.99,193.994 327.323,180.66 305.5,174.5C 306.494,165.348 306.827,156.015 306.5,146.5 Z"/></g>
<g><path style="opacity:1" fill="#6875e3" d="M 352.5,146.5 C 355.833,146.5 359.167,146.5 362.5,146.5C 362.5,200.833 362.5,255.167 362.5,309.5C 353.833,309.5 345.167,309.5 336.5,309.5C 336.826,300.983 336.493,292.65 335.5,284.5C 354.825,264.585 360.492,241.252 352.5,214.5C 352.5,191.833 352.5,169.167 352.5,146.5 Z"/></g>
<g><path style="opacity:1" fill="#5477e9" d="M 362.5,146.5 C 368.833,146.5 375.167,146.5 381.5,146.5C 384.5,146.5 387.5,146.5 390.5,146.5C 393.5,146.5 396.5,146.5 399.5,146.5C 399.5,200.833 399.5,255.167 399.5,309.5C 387.167,309.5 374.833,309.5 362.5,309.5C 362.5,255.167 362.5,200.833 362.5,146.5 Z"/></g>
<g><path style="opacity:1" fill="#3e79ef" d="M 399.5,146.5 C 408.506,146.334 417.506,146.5 426.5,147C 434.391,149.721 438.724,155.221 439.5,163.5C 432.326,208.893 424.826,254.227 417,299.5C 413.37,306.568 407.537,309.902 399.5,309.5C 399.5,255.167 399.5,200.833 399.5,146.5 Z"/></g>
<g><path style="opacity:1" fill="#ee6bbf" d="M 159.5,146.5 C 161.833,146.5 164.167,146.5 166.5,146.5C 167.167,146.5 167.833,146.5 168.5,146.5C 168.832,198.003 168.499,249.336 167.5,300.5C 159.252,254.844 151.585,209.011 144.5,163C 145.815,154.184 150.815,148.684 159.5,146.5 Z"/></g>
<g><path style="opacity:1" fill="#50d0d9" d="M 305.5,174.5 C 327.323,180.66 342.99,193.994 352.5,214.5C 360.492,241.252 354.825,264.585 335.5,284.5C 318.847,298.081 299.847,303.081 278.5,299.5C 263.289,295.741 250.956,287.741 241.5,275.5C 237.287,269.741 234.12,263.408 232,256.5C 225.753,234.989 229.253,215.322 242.5,197.5C 250.249,189.127 259.249,182.461 269.5,177.5C 272.454,176.572 275.454,175.739 278.5,175C 287.494,174.5 296.494,174.334 305.5,174.5 Z"/></g>
<g><path style="opacity:1" fill="#fbfdfe" d="M 266.5,198.5 C 283.833,198.5 301.167,198.5 318.5,198.5C 318.5,202.167 318.5,205.833 318.5,209.5C 313.456,209.173 308.456,209.506 303.5,210.5C 304.877,212.289 305.877,214.289 306.5,216.5C 310.445,217.491 314.445,217.824 318.5,217.5C 318.5,220.833 318.5,224.167 318.5,227.5C 314.818,227.335 311.152,227.501 307.5,228C 305.834,235.009 302.167,240.675 296.5,245C 301.907,255.146 307.573,265.146 313.5,275C 309.167,275.667 304.833,275.667 300.5,275C 294.914,265.829 289.58,256.496 284.5,247C 278.509,246.501 272.509,246.334 266.5,246.5C 266.5,243.167 266.5,239.833 266.5,236.5C 273.508,236.666 280.508,236.5 287.5,236C 291.301,234.699 293.968,232.199 295.5,228.5C 285.856,227.502 276.19,227.168 266.5,227.5C 266.5,224.167 266.5,220.833 266.5,217.5C 275.833,217.5 285.167,217.5 294.5,217.5C 293.761,213.592 291.428,211.092 287.5,210C 280.508,209.5 273.508,209.334 266.5,209.5C 266.5,205.833 266.5,202.167 266.5,198.5 Z"/></g>
<g><path style="opacity:1" fill="#6079e7" d="M 120.5,141.5 C 130.431,200.416 140.598,259.416 151,318.5C 152.892,322.058 155.725,324.558 159.5,326C 168.827,326.5 178.161,326.666 187.5,326.5C 187.5,330.167 187.5,333.833 187.5,337.5C 177.161,337.666 166.828,337.5 156.5,337C 147.573,333.74 141.739,327.573 139,318.5C 132.924,280.044 126.424,241.711 119.5,203.5C 120.497,183.007 120.831,162.34 120.5,141.5 Z"/></g>
<g><path style="opacity:1" fill="#ac70d0" d="M 241.5,275.5 C 250.956,287.741 263.289,295.741 278.5,299.5C 278.5,302.833 278.5,306.167 278.5,309.5C 266.167,309.5 253.833,309.5 241.5,309.5C 241.5,298.167 241.5,286.833 241.5,275.5 Z"/></g>
<g><path style="opacity:1" fill="#8274dc" d="M 335.5,284.5 C 336.493,292.65 336.826,300.983 336.5,309.5C 317.167,309.5 297.833,309.5 278.5,309.5C 278.5,306.167 278.5,302.833 278.5,299.5C 299.847,303.081 318.847,298.081 335.5,284.5 Z"/></g>
<g><path style="opacity:1" fill="#8a72da" d="M 187.5,326.5 C 206.167,326.5 224.833,326.5 243.5,326.5C 243.5,330.167 243.5,333.833 243.5,337.5C 224.833,337.5 206.167,337.5 187.5,337.5C 187.5,333.833 187.5,330.167 187.5,326.5 Z"/></g>
<g><path style="opacity:1" fill="#aa70d1" d="M 243.5,326.5 C 262.5,326.5 281.5,326.5 300.5,326.5C 300.5,330.167 300.5,333.833 300.5,337.5C 281.5,337.5 262.5,337.5 243.5,337.5C 243.5,333.833 243.5,330.167 243.5,326.5 Z"/></g>
<g><path style="opacity:1" fill="#c46eca" d="M 300.5,326.5 C 315.5,326.5 330.5,326.5 345.5,326.5C 345.5,330.167 345.5,333.833 345.5,337.5C 330.5,337.5 315.5,337.5 300.5,337.5C 300.5,333.833 300.5,330.167 300.5,326.5 Z"/></g>
<g><path style="opacity:1" fill="#e36bc1" d="M 345.5,326.5 C 369.502,326.333 393.502,326.5 417.5,327C 419.91,327.758 420.91,329.425 420.5,332C 420.91,334.575 419.91,336.242 417.5,337C 393.502,337.5 369.502,337.667 345.5,337.5C 345.5,333.833 345.5,330.167 345.5,326.5 Z"/></g>
<g><path style="opacity:1" fill="#5179eb" d="M 402.5,362.5 C 387.833,362.5 373.167,362.5 358.5,362.5C 368.599,349.565 380.932,347.065 395.5,355C 398.739,356.736 401.073,359.236 402.5,362.5 Z"/></g>
<g><path style="opacity:1" fill="#5b77e8" d="M 217.5,365.5 C 209.841,366.166 202.007,366.5 194,366.5C 185.804,366.498 177.97,365.831 170.5,364.5C 179.79,350.532 192.123,347.032 207.5,354C 212.127,356.788 215.461,360.622 217.5,365.5 Z"/></g>
<g><path style="opacity:1" fill="#7b76e0" d="M 170.5,364.5 C 177.97,365.831 185.804,366.498 194,366.5C 202.007,366.5 209.841,366.166 217.5,365.5C 219.655,367.617 220.655,370.284 220.5,373.5C 220.5,374.5 220.5,375.5 220.5,376.5C 214.833,376.5 209.167,376.5 203.5,376.5C 201.566,369.09 196.9,366.59 189.5,369C 187.959,370.371 186.625,371.871 185.5,373.5C 179.5,373.5 173.5,373.5 167.5,373.5C 167.528,370.084 168.528,367.084 170.5,364.5 Z"/></g>
<g><path style="opacity:1" fill="#7576e1" d="M 358.5,362.5 C 373.167,362.5 387.833,362.5 402.5,362.5C 404.873,364.579 406.206,367.246 406.5,370.5C 406.5,371.5 406.5,372.5 406.5,373.5C 400.833,373.5 395.167,373.5 389.5,373.5C 385.269,368.154 380.102,367.154 374,370.5C 372.441,372.217 371.608,374.217 371.5,376.5C 365.833,376.5 360.167,376.5 354.5,376.5C 354.5,374.833 354.5,373.167 354.5,371.5C 355.042,368.088 356.375,365.088 358.5,362.5 Z"/></g>
<g><path style="opacity:1" fill="#fcfbfe" d="M 203.5,376.5 C 202.507,384.985 197.84,388.152 189.5,386C 184.839,382.819 183.506,378.653 185.5,373.5C 186.625,371.871 187.959,370.371 189.5,369C 196.9,366.59 201.566,369.09 203.5,376.5 Z"/></g>
<g><path style="opacity:1" fill="#fcfbfe" d="M 389.5,373.5 C 390.979,383.519 386.646,387.686 376.5,386C 373.125,383.752 371.459,380.585 371.5,376.5C 371.608,374.217 372.441,372.217 374,370.5C 380.102,367.154 385.269,368.154 389.5,373.5 Z"/></g>
<g><path style="opacity:1" fill="#ac71d1" d="M 167.5,373.5 C 173.5,373.5 179.5,373.5 185.5,373.5C 183.506,378.653 184.839,382.819 189.5,386C 197.84,388.152 202.507,384.985 203.5,376.5C 209.167,376.5 214.833,376.5 220.5,376.5C 220.5,375.5 220.5,374.5 220.5,373.5C 222.035,378.663 221.369,383.663 218.5,388.5C 202.167,388.5 185.833,388.5 169.5,388.5C 167.758,383.697 167.091,378.697 167.5,373.5 Z"/></g>
<g><path style="opacity:1" fill="#ab71d2" d="M 406.5,370.5 C 408.174,377.058 407.508,383.391 404.5,389.5C 388.675,388.504 372.675,388.17 356.5,388.5C 353.655,383.043 352.988,377.376 354.5,371.5C 354.5,373.167 354.5,374.833 354.5,376.5C 360.167,376.5 365.833,376.5 371.5,376.5C 371.459,380.585 373.125,383.752 376.5,386C 386.646,387.686 390.979,383.519 389.5,373.5C 395.167,373.5 400.833,373.5 406.5,373.5C 406.5,372.5 406.5,371.5 406.5,370.5 Z"/></g>
<g><path style="opacity:1" fill="#ca6ec8" d="M 169.5,388.5 C 185.833,388.5 202.167,388.5 218.5,388.5C 216.967,392.704 214.3,396.037 210.5,398.5C 199.5,398.5 188.5,398.5 177.5,398.5C 173.7,396.037 171.033,392.704 169.5,388.5 Z"/></g>
<g><path style="opacity:1" fill="#ca6ec9" d="M 356.5,388.5 C 372.675,388.17 388.675,388.504 404.5,389.5C 402.967,393.704 400.3,397.037 396.5,399.5C 386.013,398.506 375.346,398.172 364.5,398.5C 360.426,396.382 357.759,393.049 356.5,388.5 Z"/></g>
<g><path style="opacity:1" fill="#e96ec1" d="M 364.5,398.5 C 375.346,398.172 386.013,398.506 396.5,399.5C 389.45,403.743 381.783,405.243 373.5,404C 370.102,402.643 367.102,400.81 364.5,398.5 Z"/></g>
<g><path style="opacity:1" fill="#ea6ec1" d="M 177.5,398.5 C 188.5,398.5 199.5,398.5 210.5,398.5C 202.763,404.502 194.096,406.002 184.5,403C 181.761,401.974 179.428,400.474 177.5,398.5 Z"/></g>
</svg>
